<svg width="294" height="42" viewBox="0 0 294 42" fill="none" xmlns="http://www.w3.org/2000/svg">
<!-- O -->
<path d="M18 30H6V18H18V30Z" fill="#CFCECD"/>
<path d="M18 12H6V30H18V12ZM24 36H0V6H24V36Z" fill="#656363"/>
<!-- P -->
<path d="M48 30H36V18H48V30Z" fill="#CFCECD"/>
<path d="M36 30H48V12H36V30ZM54 36H36V42H30V6H54V36Z" fill="#656363"/>
<!-- E -->
<path d="M84 24V30H66V24H84Z" fill="#CFCECD"/>
<path d="M84 24H66V30H84V36H60V6H84V24ZM66 18H78V12H66V18Z" fill="#656363"/>
<!-- N -->
<path d="M108 36H96V18H108V36Z" fill="#CFCECD"/>
<path d="M108 12H96V36H90V6H108V12ZM114 36H108V12H114V36Z" fill="#656363"/>
<!-- P -->
<path d="M138 30H126V18H138V30Z" fill="#CFCECD"/>
<path d="M126 30H138V12H126V30ZM144 36H126V42H120V6H144V36Z" fill="#211E1E"/>
<!-- A -->
<path d="M168 30H156V18H168V30Z" fill="#CFCECD"/>
<path d="M168 12H156V30H168V36H150V6H174V36H168V12ZM156 18H168V12H156V18Z" fill="#211E1E"/>
<!-- T -->
<path d="M198 36H186V18H198V36Z" fill="#CFCECD"/>
<path d="M198 12H186V36H198V12ZM204 12H180V6H204V12ZM198 18H186V12H198V18Z" fill="#211E1E"/>
<!-- E -->
<path d="M234 24V30H216V24H234Z" fill="#CFCECD"/>
<path d="M234 24H216V30H234V36H210V6H234V24ZM216 18H228V12H216V18Z" fill="#211E1E"/>
<!-- N -->
<path d="M258 36H246V18H258V36Z" fill="#CFCECD"/>
<path d="M258 12H246V36H240V6H258V12ZM264 36H258V12H264V36Z" fill="#211E1E"/>
<!-- T -->
<path d="M288 36H276V18H288V36Z" fill="#CFCECD"/>
<path d="M288 12H276V36H288V12ZM294 12H270V6H294V12ZM288 18H276V12H288V18Z" fill="#211E1E"/>
</svg>
